#!OML:ASF I:\golf\golf\golf 2\Subject 1\2002-09-07\Subject1.ASF
:FULLY-SPECIFIED
:DEGREES
152
root -6.05672 17.7262 3.19275 1.29762 31.7105 -10.2786
lowerback 0.151862 -10.1573 -16.1886
upperback -2.08973 -13.5532 -3.65082
thorax 0.436145 -6.55914 4.49518
lowerneck -5.43202 22.0385 2.55507
upperneck 13.9997 31.9476 -11.7786
head 7.55875 14.589 -0.982886
rclavicle -7.31528e-014 6.36111e-015
rhumerus 24.6704 -22.002 -63.6789
rradius 111.791
rwrist -0.540617
rhand -61.1154 37.106
rfingers 7.12502
rthumb -33.213 10.151
lclavicle -7.31528e-014 6.36111e-015
lhumerus 110.957 -42.6343 41.4779
lradius 40.2958
lwrist -0.400434
lhand -19.9527 -0.917044
lfingers 7.12502
lthumb -173.615 -151.033
rfemur -27.2949 18.6682 27.9737
rtibia 32.6919
rfoot -2.99948 29.7781
rtoes 33.3288
lfemur 0.915521 19.8348 7.94433
ltibia 38.3698
lfoot 7.46544 16.2327
ltoes -27.6671
153
root -6.05272 17.7285 3.20986 1.4468 31.4918 -10.029
lowerback 0.26146 -10.5351 -16.3509
upperback -1.93416 -14.0617 -3.2277
thorax 0.784226 -6.84557 4.9329
lowerneck -7.08453 22.4687 0.744561
upperneck 14.0044 32.6813 -11.4976
head 7.55414 14.7857 -0.497068
rclavicle 4.05521e-014 3.81667e-014
rhumerus 26.84 -21.7145 -63.4661
rradius 111.948
rwrist 0.298499
rhand -61.1886 37.2624
rfingers 7.12502
rthumb -33.2827 10.3223
lclavicle 4.05521e-014 3.81667e-014
lhumerus 110.961 -40.716 41.8397
lradius 40.7451
lwrist -0.657063
lhand -20.4761 -1.15102
lfingers 7.12502
lthumb -174.12 -151.253
rfemur -27.2958 18.8396 27.792
rtibia 32.8046
rfoot -3.04803 29.7821
rtoes 33.4785
lfemur 1.00137 19.9429 7.81705
ltibia 38.3363
lfoot 8.43644 16.0154
ltoes -29.0702
154
root -6.04801 17.7292 3.22608 1.49648 31.286 -10.0469
lowerback 0.133174 -10.2354 -16.0649
upperback -2.15934 -13.6624 -3.66204
thorax 0.362802 -6.60711 4.41827
lowerneck -5.45868 22.1872 2.33929
upperneck 13.6376 32.1117 -11.8628
head 7.4372 14.6762 -0.984683
rclavicle -1.57835e-013 1.59028e-014
rhumerus 25.8497 -23.0536 -62.3168
rradius 112.267
rwrist 1.95693
rhand -61.6955 35.6347
rfingers 7.12502
rthumb -33.7645 8.79898
lclavicle -1.57835e-013 1.59028e-014
lhumerus 112.154 -41.4534 41.1396
lradius 41.2228
lwrist -0.511367
lhand -21.097 -1.80404
lfingers 7.12502
lthumb -174.719 -151.89
rfemur -27.3098 19.066 27.8246
rtibia 32.8477
rfoot -2.97667 29.7571
rtoes 33.8878
lfemur 1.03629 20.048 7.9542
ltibia 38.3184
lfoot 9.13438 15.9178
ltoes -29.7507
155
root -6.04463 17.7349 3.24181 1.60337 31.1545 -10.024
lowerback 0.154999 -10.4263 -16.0027
upperback -2.13213 -13.919 -3.43076
thorax 0.473266 -6.7467 4.59029
lowerneck -6.28877 22.4795 1.33253
upperneck 13.5589 32.5437 -11.5874
head 7.37348 14.821 -0.699405
rclavicle -1.46306e-013 7.63333e-014
rhumerus 26.9939 -23.2068 -61.7987
rradius 112.386
rwrist 3.38294
rhand -62.0424 32.1081
rfingers 7.12502
rthumb -34.094 5.34522
lclavicle -1.46306e-013 7.63333e-014
lhumerus 112.366 -40.525 41.5028
lradius 41.4122
lwrist -0.576048
lhand -21.6095 -2.61427
lfingers 7.12502
lthumb -175.214 -152.688
rfemur -27.3731 19.2802 27.775
rtibia 32.839
rfoot -2.70055 29.7526
rtoes 34.6299
lfemur 1.01027 20.1838 8.05576
ltibia 38.3037
lfoot 9.56062 15.825
ltoes -29.3048
156
root -6.04245 17.7425 3.25782 1.72692 31.0615 -9.85597
lowerback 0.243546 -10.6127 -16.0754
upperback -2.04995 -14.1766 -3.22884
thorax 0.630262 -6.89052 4.80091
lowerneck -7.24001 22.6369 0.347298
upperneck 13.5387 32.8277 -11.3641
head 7.34767 14.8829 -0.432868
rclavicle -1.50281e-013 -4.45278e-014
rhumerus 28.1653 -23.3588 -61.3214
rradius 112.581
rwrist 4.09192
rhand -62.369 31.3378
rfingers 7.12502
rthumb -34.4041 4.64465
lclavicle -1.50281e-013 -4.45278e-014
lhumerus 112.615 -39.5737 41.8643
lradius 41.6887
lwrist -0.62408
lhand -21.8487 -2.95847
lfingers 7.12502
lthumb -175.445 -153.027
rfemur -27.369 19.4397 27.6178
rtibia 32.8179
rfoot -2.50817 29.7534
rtoes 34.9179
lfemur 1.04474 20.2222 8.00547
ltibia 38.2585
lfoot 10.2131 15.5288
ltoes -29.5925
157
root -6.0382 17.7496 3.2742 1.81999 30.9421 -9.66913
lowerback 0.176869 -10.2617 -16.0069
upperback -2.30218 -13.7235 -3.78736
thorax 0.152086 -6.61641 4.28614
lowerneck -5.34624 22.1576 2.53325
upperneck 13.4695 32.0257 -11.9008
head 7.39262 14.6606 -1.04187
rclavicle -2.5842e-014 -2.54444e-014
rhumerus 26.6957 -24.661 -60.0272
rradius 112.988
rwrist 4.42162
rhand -62.6795 31.5667
rfingers 7.12502
rthumb -34.6988 4.94082
lclavicle -2.5842e-014 -2.54444e-014
lhumerus 113.736 -40.6695 41.314
lradius 42.163
lwrist -0.210917
lhand -21.9869 -3.07867
lfingers 7.12502
lthumb -175.579 -153.145
rfemur -27.2812 19.5399 27.4907
rtibia 32.7988
rfoot -2.43671 29.7932
rtoes 35.0865
lfemur 1.12243 20.1773 7.90628
ltibia 38.1933
lfoot 11.2346 15.0258
ltoes -31.3316
